PathFileType	4	(X/Y/Z)	/Users/niels/Desktop/University/Third Semester/Perception and Action/Exam/Gymnastics Motion Tracking/Code for Gym Tracking/Scripts/Analyzed Data/Start Salto/st_salto_good_id17_1_Sports2D/st_salto_good_id17_1_Sports2D_px_person00.trc
DataRate	CameraRate	NumFrames	NumMarkers	Units	OrigDataRate	OrigDataStartFrame	OrigNumFrames
29.75	29.75	11	22	m	29.75	60	120
Frame#	Time	Hip			RHip			RKnee			RAnkle			RBigToe			RSmallToe			RHeel			LHip			LKnee			LAnkle			LBigToe			LSmallToe			LHeel			Neck			Head			Nose			RShoulder			RElbow			RWrist			LShoulder			LElbow			LWrist		
		X1	Y1	Z1	X2	Y2	Z2	X3	Y3	Z3	X4	Y4	Z4	X5	Y5	Z5	X6	Y6	Z6	X7	Y7	Z7	X8	Y8	Z8	X9	Y9	Z9	X10	Y10	Z10	X11	Y11	Z11	X12	Y12	Z12	X13	Y13	Z13	X14	Y14	Z14	X15	Y15	Z15	X16	Y16	Z16	X17	Y17	Z17	X18	Y18	Z18	X19	Y19	Z19	X20	Y20	Z20	X21	Y21	Z21	X22	Y22	Z22
60	2.0168067226890756	1.0707352563543624	-0.27906062055418834	0.0	1.0717654510390968	-0.28213712041797345	0.0	0.9427444540620912	-0.3070660403955043	0.0	0.8345051800471963	-0.2699579604122653	0.0	0.7819277792100535	-0.2973703852483491	0.0	0.782797454621614	-0.28949382783830085	0.0	0.8176327949303931	-0.2574562149232594	0.0	1.0707545740702031	-0.2818422280941835	0.0	0.9468635753712501	-0.29676821473531656	0.0	0.8430358298405842	-0.26690252142135623	0.0	0.7882829479895243	-0.27714219514840915	0.0	0.7976989586768558	-0.2820127184232373	0.0	0.8230788452139929	-0.25323659845014157	0.0	1.0874946354992086	-0.44624874543758064	0.0	1.064371252856973	-0.5195800589560615	0.0	1.0516031717005034	-0.4768862043089604	0.0	1.0927818803505422	-0.4277601550868634	0.0	1.020251451569003	-0.3832308034120385	0.0	0.9542120261605395	-0.3448350996456633	0.0	1.0911305060802257	-0.43015370400770864	0.0	1.0237478423846984	-0.3833683097531719	0.0	0.9575958635857466	-0.34419507439785635	0.0
61	2.0504201680672267	1.086765771102799	-0.28166063906422284	0.0	1.0879924882216283	-0.28347895200312423	0.0	0.9568511979051024	-0.2992327189259879	0.0	0.8527122875507606	-0.25202776515904685	0.0	0.7965325833967746	-0.27428935576464647	0.0	0.7986159425322842	-0.26725010068568805	0.0	0.8377948512493006	-0.23827345778575396	0.0	1.086657020385239	-0.2838764088423514	0.0	0.9612639899543406	-0.287671895387198	0.0	0.860272557322394	-0.2494235148892617	0.0	0.8013375795721689	-0.2572208163351751	0.0	0.8094375856722688	-0.2624474664627764	0.0	0.8420346102869957	-0.23442184522118695	0.0	1.0886909725022869	-0.447938457007457	0.0	1.058570265686222	-0.5185171300177933	0.0	1.049259302188337	-0.47362052327087123	0.0	1.0951834961010127	-0.4291839403415514	0.0	1.0272618055238854	-0.37656748366824705	0.0	0.9652085888635921	-0.33188692275023385	0.0	1.093058096938458	-0.4316478517700602	0.0	1.0312993733840283	-0.3784090093335849	0.0	0.9639871404533993	-0.33123942458316596	0.0
62	2.084033613445378	1.1031124851102048	-0.2852722653249822	0.0	1.1044558647424911	-0.28568196795768086	0.0	0.9723255026055612	-0.29068331660377683	0.0	0.873055942951904	-0.2335782171390022	0.0	0.8142217730681114	-0.2501962812649648	0.0	0.8174140246658712	-0.24366549784616215	0.0	0.8606380723100954	-0.21958284685678384	0.0	1.1027382727439496	-0.2871452058132822	0.0	0.9767732182231256	-0.27919631409048823	0.0	0.8799902394502614	-0.23182025543541032	0.0	0.8186186057218677	-0.2374754957815933	0.0	0.8256024247575802	-0.24303451110368385	0.0	0.863809950178449	-0.216088558301692	0.0	1.089588737534463	-0.4496240686543464	0.0	1.0526150165518309	-0.5162922865504176	0.0	1.0476352390121655	-0.47005889666503686	0.0	1.0977086946541688	-0.4301292748716914	0.0	1.035055904010576	-0.3693664167530262	0.0	0.9766539386023668	-0.3193157530888975	0.0	1.0951899044862399	-0.4329444043123519	0.0	1.0393824986319729	-0.37363185379907077	0.0	0.9745404312788519	-0.3193336681118815	0.0
63	2.1176470588235294	1.1193821973343034	-0.2894516354026271	0.0	1.1207782887843671	-0.28856558042471375	0.0	0.9891931818637668	-0.2814047622476789	0.0	0.8954730368012374	-0.21497276750279803	0.0	0.8351797663961799	-0.2256972044922914	0.0	0.8393943786381263	-0.21940666838303668	0.0	0.8856440067302027	-0.20130704339507918	0.0	1.1186436052272206	-0.29108442967999587	0.0	0.9934568192270263	-0.2709002138944086	0.0	0.9021531696025801	-0.21441179892967877	0.0	0.8402989209375759	-0.2171397353713418	0.0	0.8464900909402201	-0.22277586652044648	0.0	0.8881543237621181	-0.1981036334543677	0.0	1.0901051175808234	-0.4508913071872735	0.0	1.0464989222092944	-0.5125295563256926	0.0	1.0466295298750878	-0.4659364285213293	0.0	1.100264902016011	-0.43058407033851487	0.0	1.0434858379311587	-0.3618165419683238	0.0	0.9887861375767376	-0.30745882052824003	0.0	1.0974528368245102	-0.4338214974347295	0.0	1.0476648784832479	-0.3686867897428632	0.0	0.9876339007047688	-0.3083228584879611	0.0
64	2.1512605042016806	1.1350074398993215	-0.2936416732776584	0.0	1.136379153404005	-0.2918815277097521	0.0	1.0069218814552228	-0.2717241375924055	0.0	0.9194019414681616	-0.1968499642979099	0.0	0.8589006318634885	-0.20155707356499597	0.0	0.8640301178047507	-0.19542024111798845	0.0	0.9118534958100574	-0.18353430343016455	0.0	1.1338259562818738	-0.2950417338901943	0.0	1.0109186083994628	-0.2624801953704105	0.0	0.9261651481630868	-0.1976823608597867	0.0	0.8658168159766124	-0.1959884102848364	0.0	0.8714946618194651	-0.2011667181582131	0.0	0.9143527834060744	-0.18071161746606662	0.0	1.0903382756258388	-0.45138237031623185	0.0	1.0404284887112476	-0.5070531319297702	0.0	1.0462908181425992	-0.4609942127390691	0.0	1.1026920698441163	-0.430683737352242	0.0	1.052201518815901	-0.3543571527001626	0.0	1.001466441750514	-0.2967469964354057	0.0	1.0998153465728022	-0.4341698852457486	0.0	1.05578045212925	-0.363333487758837	0.0	1.001649108802671	-0.29834199175651505	0.0
65	2.1848739495798317	1.149552533135224	-0.29742159540570234	0.0	1.1508419918550608	-0.2954536343853869	0.0	1.0248236265756456	-0.26219031182927593	0.0	0.9441338408440467	-0.17977849948906266	0.0	0.8846038054890112	-0.17824755622264501	0.0	0.890505502737118	-0.17243321311568732	0.0	0.9383326013285439	-0.16650330150155526	0.0	1.1478587285180817	-0.2985643599428846	0.0	1.0286860941769307	-0.2538695259225337	0.0	0.9512753063475798	-0.1818892448836529	0.0	0.8941692690501402	-0.17442544055462048	0.0	0.899424706537224	-0.17854552675389804	0.0	0.941599850168015	-0.16428174093061942	0.0	1.0905239496363883	-0.4509767600251716	0.0	1.034805827488299	-0.4999950005182999	0.0	1.0465520134462276	-0.455202858637565	0.0	1.1048554481902688	-0.4306048717604252	0.0	1.0608854454983605	-0.3475830103159767	0.0	1.0143756197838931	-0.28749117151644166	0.0	1.102254991521956	-0.4340423638895175	0.0	1.0635387490790997	-0.3576050001411848	0.0	1.0152382442447097	-0.2896097343658552	0.0
66	2.2184873949579833	1.1628687060798018	-0.30064938964579363	0.0	1.1640656773235551	-0.2992034265527966	0.0	1.0424714101471535	-0.25342851049567117	0.0	0.9691736028037274	-0.16419266452798745	0.0	0.9116564216257735	-0.15606117362082944	0.0	0.9181616656973604	-0.15089938798558794	0.0	0.9645390927814511	-0.15068653577721286	0.0	1.1605924370316378	-0.3015146519615003	0.0	1.046613076025536	-0.2452986977780786	0.0	0.9769174327476181	-0.16706433269753013	0.0	0.9241824360959018	-0.15321648258714043	0.0	0.9289542280393343	-0.1559345022822309	0.0	0.9692963915120458	-0.1491871716675416	0.0	1.0909622857265966	-0.44975716789110015	0.0	1.0301094180214383	-0.49172627355100257	0.0	1.047123805310325	-0.4487950482764915	0.0	1.1067339549430737	-0.4304269144840415	0.0	1.0693829253408984	-0.3421076667390397	0.0	1.0271618309764947	-0.27980869404661257	0.0	1.1046961421599322	-0.4335712758358173	0.0	1.0710125467703921	-0.351995197474239	0.0	1.0274935653791115	-0.2822889441016197	0.0
67	2.2521008403361344	1.1750742884629966	-0.30349968172531383	0.0	1.176201575938946	-0.30311826136367664	0.0	1.0597418068550024	-0.24603815756925884	0.0	0.994370870239521	-0.15048773830297674	0.0	0.93975017583536	-0.13537054971832524	0.0	0.946668648084134	-0.13114794132745533	0.0	0.9904159293416754	-0.13676744875028107	0.0	1.1721497195857833	-0.30408373527147087	0.0	1.0649493978631233	-0.2373117752708596	0.0	1.0028073604562038	-0.15330863937415326	0.0	0.9547021840655759	-0.13322183776477745	0.0	0.958982496961535	-0.13457729951009287	0.0	0.9970621527246766	-0.13580505219705016	0.0	1.0919030308930406	-0.44782635470150767	0.0	1.0266836053991835	-0.4827243831439638	0.0	1.0478411439661277	-0.442062031546827	0.0	1.108487365042687	-0.4300718846855026	0.0	1.0776371134011584	-0.3382395902710717	0.0	1.039473211105754	-0.2735777199273046	0.0	1.1070259914713156	-0.43285291791995856	0.0	1.0783643931973783	-0.3472283226939342	0.0	1.037992981608576	-0.27635523776266185	0.0
68	2.2857142857142856	1.1863625069675714	-0.3063317221605718	0.0	1.1874783675582496	-0.30725305646199275	0.0	1.0765284338167995	-0.24052405380967132	0.0	1.0197714288558644	-0.13906543122597778	0.0	0.9687361624591585	-0.11674934984181456	0.0	0.9758431576170737	-0.11354157110180221	0.0	1.0162716059422379	-0.1254339314590471	0.0	1.1827845564360349	-0.30671061607169603	0.0	1.0841165293028652	-0.23058467371099006	0.0	1.0289499260893564	-0.140937942820774	0.0	0.98493196904852	-0.115261892970539	0.0	0.9889233789043452	-0.11556728911066264	0.0	1.0247735067894959	-0.12447264277608575	0.0	1.0934451110907433	-0.445195377932727	0.0	1.024581590245016	-0.47346635838316803	0.0	1.048900510694673	-0.4352252459273977	0.0	1.1103876743442798	-0.429345634755921	0.0	1.0855813308771236	-0.33570770385812565	0.0	1.0510171527417271	-0.26851007750812417	0.0	1.1091551685918017	-0.4318979544445513	0.0	1.085665663990591	-0.34375212306557007	0.0	1.0467782873063727	-0.27156272411985033	0.0
69	2.3193277310924367	1.1968771597196017	-0.30943982896909855	0.0	1.1980982939246314	-0.31168920986096826	0.0	1.0925767873920194	-0.23710373368776255	0.0	1.0454882819556612	-0.13011562941742882	0.0	0.9983670468340379	-0.10081791185583515	0.0	1.0054253964810729	-0.09844849782553601	0.0	1.042710318793811	-0.11696536676068832	0.0	1.192766640328504	-0.30984360617601886	0.0	1.104494344348874	-0.22563863634598685	0.0	1.0556972515972198	-0.13027392101771496	0.0	1.0146417048328125	-0.09994238344494145	0.0	1.0186582382806846	-0.09963810249167362	0.0	1.0527783379300946	-0.115274566036404	0.0	1.095533115895193	-0.44186470819945217	0.0	1.0235926526747967	-0.46427946527964525	0.0	1.050618574751972	-0.4284632838269672	0.0	1.1126650709243877	-0.4280748101890544	0.0	1.093233917007151	-0.3338105271908144	0.0	1.0617383488363068	-0.26434642761131427	0.0	1.111095861561002	-0.43063506593054185	0.0	1.0929825460352054	-0.34147741756804495	0.0	1.0545235138995712	-0.2675586200387407	0.0
70	2.3529411764705883	1.206797872041721	-0.31296832034838734	0.0	1.2082853580296156	-0.3164780842492428	0.0	1.107678637620132	-0.23555125589899487	0.0	1.0717857059966134	-0.12338650546297822	0.0	1.0283837727826388	-0.08795470859942492	0.0	1.0352988596725317	-0.08611249293281509	0.0	1.070626246995328	-0.11097645390369983	0.0	1.20242874407756	-0.3136986718422965	0.0	1.1263971467871108	-0.22268764600945953	0.0	1.08380822704806	-0.12139431859083201	0.0	1.044005250561876	-0.0874866453928993	0.0	1.0482098210656376	-0.087031322739541	0.0	1.0819969956358053	-0.10791799927877864	0.0	1.098025326038048	-0.4379099107065547	0.0	1.0233973140524577	-0.4551585462148753	0.0	1.0531904554517846	-0.42187996994363974	0.0	1.115454882053299	-0.4261907185029881	0.0	1.100870948366778	-0.33188398832814525	0.0	1.0719766146568468	-0.2609339934903284	0.0	1.1130441250665497	-0.4288775881264278	0.0	1.10050696938939	-0.33990625131583774	0.0	1.0627244859798413	-0.26400936280913173	0.0
